<!-- Generator: Adobe Illustrator 23.0.1, SVG Export Plug-In  -->
<svg version="1.1" xmlns="http://www.w3.org/2000/svg" xmlns:xlink="http://www.w3.org/1999/xlink" x="0px" y="0px"
	 width="257.91px" height="503.32px" viewBox="0 0 257.91 503.32" style="enable-background:new 0 0 257.91 503.32;"
	 xml:space="preserve">
<style type="text/css">
	.st0{fill:#E1E1E1;}
	.st1{fill:#DEDEDE;}
	.st2{fill:#E4E4E4;}
	.st3{fill:#EDEDED;}
	.st4{fill:#EBEBEB;}
	.st5{fill:#E9E9E9;}
	.st6{fill:#F3F3F3;}
	.st7{fill:#E0E0E0;}
	.st8{fill:#D5D5D5;}
	.st9{fill:#CCCCCC;}
	.st10{fill:#A6A6A6;}
	.st11{fill:#A8A8A8;}
	.st12{fill:#DCDCDC;}
	.st13{fill:#BFBFBF;}
	.st14{fill:#E7E7E7;}
	.st15{fill:#939393;}
	.st16{fill:#D2D2D2;}
	.st17{fill:#878787;}
	.st18{fill:#8A8A8A;}
	.st19{fill:#7F7F7F;}
</style>
<defs>
</defs>
<g id="m5mQQ1_2_">
	<g>
		<path class="st0" d="M246.03,129.13c0.65,11.77,1.5,23.52-0.89,35.23c-0.58,2.83-1.37,5.45-2.91,7.88
			c-1.95,3.08-3.99,6.07-3.97,10.01c0.01,1.85-1.38,3.3-2.58,4.73c-1.13,1.34-2.62,2.62-1.94,4.92c3.81,0.14,3.97-3.98,6.75-5.22
			c-9.78,20.7-21.52,40.38-30.51,61.42c-1.97,1.67-3.82,3.45-5.25,5.62c-8.11,1.55-12.7,9.85-21.3,10.78
			c-4.55,0.49-4,5.47-4.32,8.46c-0.6,5.59-1.15,10.29-6.96,13.44c-4.1,2.22-3.71,9.86,0.28,12.59c3.2,2.18,4.29,4.32,2.41,7.8
			c-0.86,1.61,0.67,3.11,0.52,4.73c-1.57,3.89-5.62,4.7-8.6,6.79c-2.16,1.52-4.5,2.82-6.64,4.39c-3.22,0.46-5.5,3.13-8.7,3.69
			c-1.61,0.28-3.31,1.12-4.32-0.89c-0.96-1.91-0.27-3.48,1.35-4.73c0.91-0.71,1.82-1.4,2.71-2.13c1.62-1.33,1.57-2.74,0.11-4.16
			c-0.61-1.29-2.01-1.73-2.93-2.69c-1.16-2.12-0.69-4.35,1.29-5.13c3.61-1.42,4.98-4.68,7.24-7.24c1.78-2.02,2.5-4.19,2.01-6.86
			c-0.4-2.16-0.22-4.34,0.83-6.31c2.01-3.8-0.39-7.83,0.72-11.73c0.32-1.13-1.13-1.91-2.42-1.96c-1.82-0.08-3.25,0.7-4.12,2.29
			c-4.89,9.01-9.29,18.25-12.87,27.88c-0.93,2.5,0.57,3.17,1.98,4.35c2.59,2.16,3.9,4.59,0.71,7.39c-4.01,0.89-8.05,1.47-12.04,2.56
			c-7.48,2.04-10.04-0.1-10.76-7.9c-0.12-0.51-0.1-1.03,0.03-1.53c3.39-1.51,5.4-4.39,7.48-7.29c1.9-2.64,3.18-5.18,1.25-8.31
			c2.65-7.35,7.18-13.72,10.65-20.65c1.54-3.08,2.47-6.54,4.8-9.23c4.69-6.01,7.83-12.95,11.46-19.58
			c9.1-16.59,18.34-33.15,25.97-50.47c4.34-9.84,9.16-19.53,12.46-29.81c1.03-3.2,2.38-6.2,4.31-9.17c0.35-0.28-0.58-0.51-0.08-0.07
			c0.11,0.09-0.08,0.18-0.24,0.44c-0.73,1.22-1.72,1.47-2.98,0.9c-2.09-1.55-2.33-3.47-1.19-5.69c1.72-3.36,2.42-7.25,5.39-9.97
			c0.71-0.65,1.19-1.66,1.38-2.62c1.79-9.42,6.58-18.07,7.03-27.84c0.21-4.53,2.96-8.39,3.75-12.82c0.27-1.51,1.9-2.22,3.57-2.06
			c1.86,0.18,2.4,1.64,2.6,3.11c0.18,1.38,0.25,2.83-0.43,4.18c-2.28,4.55-1.39,9.7-2.72,14.43c-0.83,4.91-3.57,9.36-3.46,14.49
			c-4.26,5.97-4.77,12.57-3.14,19.46c1.08,4.57-2.16,7.76-3.39,11.61c-3.09,2.07-4.17,4.7-2.99,8.44c0.75,2.4,0.58,4.97-1.38,7.14
			c5.82-3.41,11.9-6.27,17.24-11.54c-3.15-0.96-4.71,0.2-6.06,1.65c-0.93,1-1.92,1.9-3.2,2.32c-2.42,0.78-5.06,1.51-6.68-1.23
			c-1.54-2.58,0.25-4.49,2.16-5.86c4.87-3.5,9.25-7.56,13.58-11.66c5.18-4.91,10.55-9.71,12.83-16.85c2.32-2.83,3.26-6.63,6.77-8.71
			c1.79-1.06,0.15-3.78,1.12-5.56c1.08-2.16,1.74-4.42,0.44-6.64c-1.45-2.48-0.8-4.7,0.16-7.09c0.77-1.91,1.37-3.87,3.93-3.73
			c2.22,0.12,3.23,1.91,3.52,3.66c0.88,5.27,4.57,10.04,2.75,15.78C248.68,123.65,247.42,126.41,246.03,129.13z"/>
		<path class="st1" d="M78,290.09c-0.32-3.82,0.5-6.84,3.75-9.63c3.29-2.83,4.01-7.85,8.94-10.76c-7.17-0.49-8.88-3.07-7.24-8.94
			c2.78-9.98,8.35-18.72,12.59-28.05c0.72-1.59,2.13-2.52,3.97-2.63c1.77,0.28,2.03,1.87,2.37,2.78c2.56-4.9,3.18-10.54,4.38-16.03
			c2.06-1.85,3.6-1.13,4.72,1.04c2.45,4.72,3.13,9.66,0.91,14.58c-1.84,4.06-1.95,7.97-0.1,11.93c1.15,2.46,1.78,5.01,2.11,7.69
			c0.21,1.71,0.47,3.51,2.24,4.4c1.02-0.34,0.77-1.22,0.93-1.97c0.31-1.46,1.23-2.38,2.8-2.27c1.54,0.11,2.54,1.08,2.53,2.58
			c-0.01,2.37,1.52,4.46,1.14,6.3c-0.63-3.18-1.1-6.91-2.52-10.51c-2.42-6.11-3.41-12.68-5.76-18.84c-0.8-2.1-0.36-4.31,2.33-5.27
			c3.35-1.2,3.69-3.57,3.08-6.85c-1.12-6,0.14-7.34,6.2-7.45c3.59-0.06,4.13-2.26,3.68-5.06c-0.63-3.95-1.49-7.85-2-11.82
			c-0.32-2.52-0.69-5.36,2.67-6.04c2.98-0.6,3.75,1.88,4.75,4.09c2.7,5.95,4.3,12.44,8.7,18.65c-0.07-7.91-3.51-14.13-4.07-20.93
			c-0.15-1.82-0.5-3.62-0.31-5.46c0.25-2.42,1.33-4.14,3.89-4.47c2.6-0.34,4.51,0.54,5.5,3.18c1.98,5.26,5.01,9.98,7.97,15.84
			c1.93-4.95-1.59-7.8-1.73-11.25c0.59-2.59,1.84-4.73,4.74-4.92c2.64-0.18,3.48,2.15,4.56,3.98c1.75,2.97,4.05,5.75,3.43,10.03
			c1.17-2.7,1.81-5.26,4.36-6.38c2.7-1.19,4.73,0.59,6.9,1.71c1.72,3.3-0.71,5.72-1.96,8.23c-4.9,9.84-10.14,19.52-15.46,29.13
			c-6.8,12.29-13.45,24.64-21.08,36.51c-4.85,7.55-9.48,15.45-13.71,23.49c-2.27,4.32-6.07,7.94-7.75,12.55
			c-4.8,13.13-14.42,23.46-20.43,35.91c-1.72,3.57-3.41,8.31-8.24,9.77c-3.6-0.89-5.07-3.14-4.97-6.88
			c0.13-4.8,0.03-9.62-0.73-14.38c-0.35-2.18,1.61-3.62,1.48-5.6c-0.41,0.43,0.24-0.24,0.1-0.07c-2.86,3.54-4.87,2.3-5.74-1.29
			c-0.77-3.19-1.25-6.53-1.63-9.78C79.5,303.97,76.67,297.24,78,290.09z"/>
		<path class="st2" d="M180.02,194.11c-8.62-2.94-7.82,6.49-12.86,9.87c0.13-5.94-0.5-11.23-4.02-15.62
			c-0.7-0.87-0.91-2.39-2.31-2.3c-1.79,0.12-1.6,1.78-1.84,3.02c-0.46,0.24-1.03,0.37-1.4,0.05c-3.39-2.83-3.93-13.13-0.5-15.75
			c1.9-1.45,1.92-2.75,1.44-4.64c-0.83-3.27-2.18-6.2-4.46-8.77c-2.97-3.34-4.33-7.36-4.51-11.82c-0.28-7.16-0.1-14.26,2.43-21.09
			c3.07-3.91,6.15-7.81,9.22-11.72c4.25-5.4,9.78-9.83,11.31-17.19c0.72-3.47,4.25-5.69,6.32-8.63c2.8-3.99,5.03-8.18,6.81-12.61
			c0.75-1.87,2.72-4.78-1.82-5.61c-1.88-0.35-0.76-2.25-0.09-3.3c1.63-2.55,2.16-5.28,1.33-8.12c-2.37-8.11,4.26-12.6,7.24-18.58
			c3.2-6.4,6.8-12.51,11.76-17.72c2.04-2.15,1.94-4.84,1.93-7.51c2.01-0.57,2.71,0.78,3.12,2.27c0.53,1.91,1.27,3.84,1.17,5.83
			c-0.25,5.05,0.91,8.68,6.84,9.52c2.65,0.37,2.49,3.11,2.06,5.34c-9.16,8.2-14.29,18.34-14.75,30.73
			c-0.16,4.28-1.28,8.62,1.01,12.71c1.22,2.19,2.31,4.69,5.24,4.76c2.97,0.08,3.47-2.56,4.44-4.66c2.01-4.34,3.79-4.58,7.27-0.96
			c0.96,0.99,2.18,1.49,3.21,2.34c0.58,0.47,1.05,1.03,1.42,1.68c-0.99,4.85-3.07,9.56-1.61,14.74c0.27,0.96-1.11,1.94-2.03,2.67
			c-2.75,2.19-4.07,5.01-4.41,8.56c-0.38,3.98-1.92,4.7-5.99,3.46c2.21-6.4,2.35-13.13,3.79-19.56c-1.71-0.53-2.37,0.12-2.42,0.95
			c-0.33,5.99-3.14,11.35-4.07,17.27c-1.31,8.42-4.06,16.66-6.78,24.78c-1.26,3.76-4.71,6.53-6.12,10.48
			c-0.65,1.83-1.27,3.34-0.37,5.14c2.31,3.88-0.77,7.05-1.89,10.14c-2.24,6.21-4.76,12.4-8,18.21c-4.05,2.67-5.55,6.82-6.48,11.28
			C180.44,193.89,180.23,194,180.02,194.11z"/>
		<path class="st3" d="M159,321.09c3.87-5.03,10.7-5.61,14.99-10c0.83-2.14,0.88-4.47,1.68-6.65c0.71-1.93,0.12-3.64-1.68-5.13
			c-7.91-6.56-6.29-10.64,0.05-14.58c3.78-2.35,4.75-6.35,4.84-10.46c0.09-3.98,1.63-6.96,5.09-8.87
			c7.04-3.89,13.92-8.01,20.02-13.3c1.56-1.99,3.59-3.27,5.99-4.01c-4.02,7.08-9.11,13.52-12.58,20.92
			c-1.99,4.25-6.64,5.34-9.79,8.24c-3.38,3.11-5.69,5.51-1.88,10.31c3,3.77,0.94,8.34-1.3,12.17c-1.18,2.01-2.74,3.82-3.12,6.18
			c-0.83,5.23-4.01,8.72-8.41,11.12c-4.42,2.41-7.48,6.01-9.94,10.24c-3.01,5.18-7.3,8.81-12.57,11.72
			c-13.98,7.71-28.83,13.58-43.09,20.68c-4.27,2.12-8.26,5-10.7,9.41c-0.67,1.21-2.58,2.12-1.3,3.83c1.16,1.56,2.87,2.12,4.88,1.82
			c6.5-0.97,7.11-0.27,6.07,6.6c-0.58,3.86-1.97,7.73,2.47,10.72c1.86,1.26-0.64,7.61-3.65,9.84c-1.46,1.09-3.09,1.95-4.64,2.93
			c-3.08,1.95-4.87,4.63-4.1,8.37c0.76,3.68-0.97,5-4.26,4.86c-4.77-0.2-7.78,0.76-6.66,6.74c0.58,3.07-1.49,4.61-4.76,3.33
			c-1.04-0.41-1.84-1.48-3.34-1.1c0.34,2.61,0.85,5.14,2.21,7.46c1.02,1.75,1.01,3.65-1.5,3.39c-3.45-0.36-7.06,0.28-10.06-3.01
			c-4.34-4.75-13.79-4.77-18.94-0.76c-2.09-1.37-1.36-3.32-0.36-4.6c2.07-2.67,3.33-5.79,5.25-8.51c3.81-3.77,8.91-3.05,13.57-3.89
			c2.25-0.41,4.61-0.37,3.55-4.08c-0.71-2.49,1.46-3.74,3.62-4.6c2.53-1,4.57-2.04,4.25-5.68c-0.26-2.99,2.4-5.12,4.42-7.2
			c0.74-0.76,1.81-1.2,2.32-2.21c0.59-1.16,1.61-2.42,0.19-3.55c-1.44-1.15-2.41,0.11-3.35,1.04c-2.32,2.52-4.19,5.48-7.61,6.83
			c-1.26,0.49-2.36,1.31-3.57,0.13c-1.04-1.02-1.26-2.3-0.77-3.64c0.9-2.48,1.91-4.91,3.75-6.88c4-6.35,6.79-13.41,11.34-19.43
			c6.7-6.84,14.22-12.51,23.22-16.02c5.83-0.61,10.8-3.68,16.14-5.69c1.17-0.44,1.09-1.94,1.41-3.04c0.16-0.44,0.4-0.84,0.71-1.19
			c6.49-6.64,14-11.97,22.49-15.52C153.02,324.94,156.9,324.77,159,321.09z"/>
		<path class="st4" d="M151.99,127.09c0,6.67-0.02,13.33,0.02,20c0.03,4.67,1.56,8.63,4.83,12.17c5.01,5.42,4.24,12.97,7.64,19.66
			c-3.64-0.03-4.12-3.05-6.98-3.58c-0.86,4.78,0.43,9.26,1.49,13.75c1.83,3.96,2.94,8.11,3.38,12.45c0.13,1.28,0.91,2.82-0.53,3.65
			c-1.7,0.98-2.73-0.61-3.79-1.58c-4.97-4.54-6.27-11.24-9.69-16.7c-0.92-1.47-0.83-4.05-3.4-3.31c-2.59,0.74-2.06,3.21-1.69,5.08
			c1.34,6.67,3.02,13.27,4.26,19.96c0.64,3.44,1.28,7.06-0.82,10.9c-6.63-8.86-10-18.84-14.27-29.03c-2,2.6-0.86,4.51-0.58,6.32
			c0.66,4.27,1.68,8.5,2.18,12.78c0.49,4.29-3.12,7.35-6.91,5.53c-4.35-2.08-4.08,0.54-4.06,3.17c0.02,1.65,0.48,3.28,0.64,4.94
			c0.25,2.61,1.24,5.31-3.57,4.84c-3.55-0.35-3.13,2.64-2.13,4.99c4.85,11.38,6.68,23.44,8.25,36.23
			c-3.77-4.77-3.02-10.67-5.37-15.41c-2.35,0.97-1.46,2.41-1.29,3.59c0.31,2.13-0.14,3.35-2.63,2.61c-3.55-1.4-1.27-4.86-2.46-7.07
			c-0.29-2.72,0.06-5.45,0.01-8.18c0.05-1.83,0.36-3.62,0.65-5.41c1.17-2.77-1.48-4.24-2.13-6.37c-0.31-1.78,0.6-3.48,0.45-5.24
			c0.03-1.29-0.12-2.69,1.03-3.59c3.03-2.37,2.2-4.98,0.59-7.67c-0.07-4.02-1.47-7.78-2.28-12.19c0.55,5.78-1.72,9.67-5.83,12.69
			c-0.27,6.41-2.19,12.69-1.2,19.21c0.29,1.89-0.7,3.77-3,3.77c-2.13,0.01-2.57-1.84-2.7-3.53c-0.16-2.14-0.1-4.3-0.13-6.44
			c7.9-6.43,4.88-14.77,3.66-22.59c-0.87-5.6-1.02-10.55,3.95-14.42c1.75-1.37,1.15-3.71,1.69-5.59c0.33-1.15,0.87-2.36,2.22-2.35
			c1.27,0.01,1.29,1.25,1.48,2.23c0.2,1.06-0.15,2.6,1.54,2.63c1.12,0.02,1.48-1.19,2.01-2.01c2.04-3.18,3.54-6.85,7.8-7.9
			c1.19-0.29,1.7-1.58,2-2.71c0.82-3.07,2.84-4.68,5.87-5.42c2.37-0.58,3.86-2.19,3.41-4.74c-0.81-4.68,0.66-9.23,0.48-13.89
			c-0.16-4.26,2.47-7.09,6.03-9.05c1.49-0.82,3.3-1.58,3.42-3.35C145.94,135.44,149.62,131.59,151.99,127.09z"/>
		<path class="st5" d="M78,290.09c2.89,4.61,3.33,9.94,3.89,15.08c0.61,5.59,2.93,10.83,2.16,17.17c4.59-2.2,0.55-6.11,3.11-8.23
			c2.04,0.71,1.77,2.53,1.8,4.07c0.17,7.46,0.53,14.94,0.26,22.39c-0.12,3.17,2.05,4.97,2.79,7.53c1.13,3.32-1.61,5.28-3.07,7.39
			c-2.25,3.28-4.28,6.45-4.52,10.53c-0.08,1.35-0.61,2.81-1.67,3.52c-4.4,2.95-6.06,7.88-8.98,11.9c-2.21,3.17-4.76,1.56-7.28,0.54
			c-2.32-4.07-1.5-8.98-3.62-13.17c-1.25-2.47-2.23-5.13-3.33-7.7c-0.93-2.16-1-4.12,0.47-6.02c0.66-6.38,1.86-12.77,1.85-19.15
			c-0.01-8.36,1.72-16.46,2.47-24.7c0.24-2.65,0.88-5.44,4.82-4.73c2.3,0.42,2.42-1.52,3.11-3.05
			C74.24,299.04,73.34,293.36,78,290.09z"/>
		<path class="st4" d="M213,115.09c2.38-0.82,3.73-1.97,3.51-5.02c-0.27-3.7,2.18-6.4,4.98-8.66c1.26-1.01,3.2-2.35,1.07-3.85
			c-4.18-2.95-1.64-5.29,0.31-7.72c1.02-1.27,2.59-2.08,3.13-3.76c-0.52-1.13,0.16-1.83,0.85-2.6c3.98-4.45,9.39-7.09,13.8-11.01
			c2.13-1.89,4.69-1.4,6.26,1.26c1.54,2.61,3.44,4.82,6.08,6.36c9.51,18.7,4.19,34.9-6.96,49.03c3.67-9.06,0.58-17.4-2.81-26.69
			c-1.59,3.48-2.98,5.49-0.69,8.91c1.56,2.33,1.04,6.18-1.53,8.75c-1.56,3.45-4.14,4.45-7.94,5.34c-5.32,1.25-9.79,5.16-13.3,9.62
			c-0.9,1.14-1.53,2.46-2.64,3.51c-2.17,2.05-4.49,2.84-7.15,1.27c-2.73-1.61-2.14-4.15-1.5-6.6c0.36-1.36,1.61-2.6,0.54-4.15
			C209.61,124.21,211.44,119.69,213,115.09z"/>
		<path class="st6" d="M60,355.09c2.01,6.9,6.43,12.91,7.37,20.23c0.26,2,0.54,3.89-0.39,5.76c0.47,1.99-0.1,3.88-0.47,5.8
			c-1.36,1.74-3.22,2.94-4.82,4.42c-4.75,2.3-6.72,1.63-8.32-3.09c-1.45-4.28-1.95-8.74-1.89-13.81c-3.45,5.43-4.8,11.27-7.83,16.31
			c-1.39,2.32-1.19,4.94-0.53,7.72c1.43,6.08,2.03,12.25,4.1,18.31c1.47,4.29-3.52,7.95-5.57,11.92c-0.48,0.93-1.64,1.03-2.65,0.42
			c-1.54-3.33-0.39-7.86-4.59-10.01c-1.64-0.84-3.34-1.94-5.13-1.69c-6.6,0.91-8.43-5.13-13.48-7.87c1.52-0.57,2.03-0.97,2.33-0.85
			c6.25,2.57,6.34,2.6,7.6-4.05c0.59-3.11,0.9-6.24,2.93-8.86c1.1-1.41,0.34-2.79-0.09-4.23c-0.88-2.92-0.96-5.94,0-8.82
			c1.13-3.38,2.06-6.62,7.06-3.38c3.75,2.43,6.31,0.57,6.72-3.79c0.17-1.86,0.48-3.93,1.95-4.98
			C50.37,366.22,52.62,358.05,60,355.09z"/>
		<path class="st2" d="M217,3.09c3.76-3.81,6.84-4.05,12.99-0.99c-0.36,0.58-0.73,1.48-0.26,1.82c4.31,3.17,4.56,8.5,6.86,12.73
			c2.14,3.93,1.97,8.88,5.13,12.45c0.04,0.48-0.03,0.94-0.17,1.4c-0.9,3.68-0.63,7.53-1.6,11.18c-0.55,2.05,0.81,2.91,1.83,4.18
			c3.66,4.57,3.03,9.61-1.46,12.56c-5.26,2.85-13.22,1.83-14.42,10.47c-0.29,2.09-2.28,3.26-4.55,2.99
			c-2.36-0.28-3.62-1.97-3.47-4.14c0.54-7.44-0.69-14.8-0.62-22.22c2.06-4.11,3.03-8.22,0.18-12.41c-0.78-1.15-0.83-2.53-0.76-3.84
			c0.25-4.57,1.21-9.07,0.34-13.74c-0.45-2.46,1.33-4.4,3.75-5.23c1.72-0.59,3.12-1.34,2.85-3.42c-0.29-2.16-1.88-2.45-3.7-2.34
			C218.66,4.62,217.59,4.31,217,3.09z"/>
		<path class="st7" d="M39,429.1c2.7-2.37,4.21-5.58,5.71-8.69c1.96-4.06-2.13-6.96-2.71-10.67c-0.35-2.21-1.65-4.14-0.59-6.59
			c0.39-0.9,0.15-2.57-0.48-3.32c-3.29-3.91-1.32-7.52,0.55-10.97c3.25-5.97,6.14-12.05,7.8-18.67c0.47-1.88,1.64-2.92,3.63-2.59
			c2.35,0.4,1.52,2.14,1.33,3.54c-0.71,5.2-0.04,10.28,1.12,15.35c0.72,3.14,2.22,4.79,5.62,3.57c2.62-0.55,3.05,2.81,5.3,2.95
			c0.45,0.27,0.81,0.64,1.08,1.09c1.02,3.01,0.92,5.75-1.87,7.84c-3.05,0.54-4.54,3.14-5.3,5.44c-1.47,4.46-4.24,7.64-7.73,10.45
			c-0.94,1.1-1.25,2.6-2.33,3.62c-5.67,6.73-9.18,14.71-13.07,22.47c-1.31,2.62-2.65,5.23-4.29,7.63c-1.02,1.5-2.12,3.67-4.74,2.56
			c1.94-6.76,5.07-12.98,8.48-19.09C37.56,433.14,38.96,431.4,39,429.1z"/>
		<path class="st8" d="M239.99,30.09c-2.35-2.64-4.45-5.33-3.31-9.28c0.19-0.67-0.16-2.03-0.67-2.28c-4.71-2.38-3.85-8-6.78-11.43
			c-1.34-1.57-1.8-3.68,0.74-5c5,2.21,7.71,5.61,7.75,11.51c0.02,3.64,0.83,7.7,3.83,10.49c7.8,7.24,10.71,16.11,9.23,26.56
			c-0.16,1.13,0.1,2.31,0.16,3.47c-0.64,4.16-2.31,7.89-4.91,11.23c2.19-2.94,3.41-6.43,5.87-9.18c3.22,4.69,1.28,9.73,0.74,14.56
			c-0.36,3.21-0.62,6.26,0.34,9.35c-3.65,1.27-6.46-0.47-7.58-3.48c-1.57-4.25-3.75-2.9-5.93-1.26c-4.59,3.45-9,7.14-13.48,10.74
			c-0.33-0.33-0.66-0.66-0.99-0.99c-1.61-2.25-0.04-3.68,1.37-5.06c1.29-1.26,2.8-2.26,4.06-3.58c3.23-3.36,7.05-5.91,4.18-12
			c-1.4-2.96,2.32-5.74,5.39-7.35c2.78-3.21,0.75-6.46,0.22-9.7c-1.71,0.01-1.87,1.9-3.13,2.31c-0.25-0.26-0.65-0.52-0.62-0.69
			C237.62,42.7,238.81,36.39,239.99,30.09c1.86,3.07,0.85,6.43,0.97,9.68C240.84,36.53,241.85,33.17,239.99,30.09z"/>
		<path class="st9" d="M28.04,454.1c3.9-2.69,5.44-6.94,7.47-10.93c4.04-7.95,7.97-15.99,13.48-23.09c3.36,1.05,3.29,3.34,1.88,5.82
			c-1.79,3.16-3.77,6.21-5.44,9.43c-5.5,8.44-10.75,17.04-15.7,25.82c-1.83,2.09-2.82,4.73-4.58,6.87c1.71-1.97,2.56-4.5,4.29-6.47
			c4.05-7.31,8.54-14.34,13.02-21.39c1.07-0.93,2.17-1.21,3.35-0.18c-4.99,9.38-11.41,17.96-16.27,27.33
			c-5.96,11.51-13.9,21.73-19.91,33.13c-1.51,2.87-2.96,4.23-5.27,1.04c-1.12-1.55-3.08-0.86-4.36-2.14
			c1.15-4.56,5.93-5.92,8.28-9.57c3.56-5.52,7.57-10.57,9.57-17.07c1.13-3.68,3.97-6.85,6.1-10.21
			C25.64,459.85,27.81,457.46,28.04,454.1z"/>
		<path class="st8" d="M217,3.09c1.22-0.5,2.42-1.1,3.68-1.48c4.25-1.3,6.48,0.46,6.12,4.82c-0.12,1.48-0.61,2.97-0.49,4.42
			c0.18,2.27-0.87,2.49-2.67,2.17c-4.44-0.78-4.92,1.55-3.65,4.94c0.54,1.43,1.26,2.9,0.59,4.3c-2.95,6.2-0.56,12.39-0.08,18.57
			c0.14,1.83,0.6,3.6-0.5,5.28c-4.27-1.65-4.62-2.84-2.01-7c0.33-4.05-3.02-3.46-5.15-3.67c-4.38-0.42-6.23-1.96-5.17-6.71
			c0.95-4.26-0.17-8.54-1.65-12.64C206.68,9.23,211.79,6.12,217,3.09z"/>
		<path class="st10" d="M43.87,434.97c0.58-3.55,3.02-6.19,4.53-9.28c0.91-1.86,1.7-3.59,0.59-5.6c0.25-1.29,0.92-2.29,2-3.03
			c4.65-0.28,4.95,0.02,4.92,5.04c-1.41,4.51-6.06,7.15-6.89,12c-1.78,1.58-2.56,3.7-3.22,5.88c-0.92,0.38-1.84,0.77-2.76,1.15
			C40.07,438.64,44.14,437.1,43.87,434.97z"/>
		<path class="st11" d="M251.91,56.18c-0.52,7.58-4.2,12.69-8.93,12.01c1.93-4.6,5.32-8.46,6.3-13.43c0.06-0.31,1.09-0.43,1.67-0.64
			C251.27,54.81,251.59,55.49,251.91,56.18z"/>
		<path class="st12" d="M109.98,354.08c-8.59,3.62-16.48,8.33-23.16,14.92c-1.48-1.38-0.59-2.83,0.05-4.09
			c2.39-4.68,4.59-9.39,7.75-13.71c5.76-7.86,10.19-16.62,14.84-25.18c2.77-5.09,5.39-10.27,8.43-15.2
			c0.86-1.39,1.43-3.63,3.97-2.96c2.75,8.2,4.59,9.13,12.42,5.32c3.42-1.67,6.49,0.08,9.71-0.09c1.39-1.35,2.47-3.47,4.99-1.99
			c1.42,0.01,2.8,0.16,4.01,1.01c0.96,2.85-1.43,3.51-3.09,4.16c-5.4,2.1-10.4,5.19-16.14,6.43c-2.16,0.47-4.03,1.58-3.58,3.99
			c1.14,6.07-1.14,10.36-6.56,13.28c-0.34,0.28,0.48,1.18,0.19,0.58c-0.02-0.04,0.47-0.39,0.79-0.46c2.55-0.6,4.38-0.35,3.39,3.02
			l0,0c-2.72,4.57-7.86,5.19-12.06,7.33C113.85,351.49,111.07,351.39,109.98,354.08z"/>
		<path class="st13" d="M73,380.09c2.08-4.35,4.47-8.46,8.09-11.76c0.7-0.63,1.51-1.56,1.57-2.4c0.49-7.35,5.86-12.08,9.35-17.82
			c6.13-7.7,10.42-16.56,15.52-24.9c10.02-16.42,18.97-33.47,29.09-49.86c10.69-17.32,20.73-35.09,30.2-53.11
			c4.53-8.62,10.71-16.47,13.21-26.12c0,0-0.01,0-0.01,0c1.33-4.34,2.71-8.65,6-12.01c4.31-9.06,9.4-17.82,11.01-27.95
			c1.37-2.16,2.73-4.33,4.09-6.49c-0.15,5.91-2.78,10.97-4.77,16.11c-8.76,22.61-19.3,44.43-30.74,65.81
			c-6.02,11.26-12.32,22.37-18.49,33.55c-2.89,2.41-3.97,6-5.87,9.05c-6.05,9.72-10.73,20.26-16.85,29.89
			c-9.99,15.72-18.07,32.59-28.82,47.82c-3.08,4.36-5.75,8.81-7.79,13.78c-2.59,6.3-7.25,11.51-10.17,17.68
			c-0.82,1.73-2.35,2.21-4.18,1.42C72.58,381.99,72.13,381.15,73,380.09z"/>
		<path class="st14" d="M148.99,311.09c-1.52,1.02-3.07,1.98-4.99,1.99c-0.5-3.04-2.68-4.31-5.3-5.35c-3.31-1.31-4.77-3.07-1.11-6
			c4.15-3.33,5.1-8.61,5.82-13.26c0.49-3.22,1.45-5.18,3.83-6.84c2.01-1.41,3.45-3.03,3.2-5.75c-0.38-4.25,3.03-5.22,5.95-6.2
			c3.13-1.06,5.79,0.75,8.3,2.37c0.38,0.24,0.63,1.53,0.4,1.73c-4.58,4.11,0.3,10.49-3.58,14.74c-0.29,0.32-0.46,1.07-0.29,1.42
			c2.74,5.55-0.83,8.99-3.72,13.07c-1.79,2.53-2.99,5.02-6.39,5.52C149.89,308.71,149.35,309.93,148.99,311.09z"/>
		<path class="st14" d="M128,343.09c-1.11-2.24-2.53-1.52-4.05-0.46c-1.58,1.1-3.05,2.62-5.92,1.78c4.35-2.88,5.21-7.96,9-11.03
			c1.72-1.39,1.21-4.12,0.21-6.11c-2.02-4.03-0.4-5.8,3.55-6.63c7.85-1.66,14.98-5.25,22.21-8.55c1.29-0.4,3.02-0.98,3.21,0.91
			c0.28,2.79,0.06,5.7-2.7,7.53c-1.73,1.14-4.1,1.49-5.05,4.28c4.14-0.01,6.92-3.17,10.54-3.72c0.39,4.76-3.71,6.39-6.49,8.62
			c-2.95,2.36-0.82-2.47-3-2.23C142.88,332.97,135.53,338.16,128,343.09z"/>
		<path class="st4" d="M232.99,134.09c-3.08,7.17-7.79,13.12-13.76,18.05c-4.35,3.59-8.93,6.91-13.36,10.41
			c-1.17,0.93-3.78,1.64-2.32,3.56c1.37,1.81,4.14,1.18,5.27-0.46c2-2.9,4.98-3.68,7.84-4.9c1.68-0.72,3.39-1.84,4.78,0.42
			c1.36,2.24,0.81,4.11-1.17,5.68c-4.18,3.31-8.64,6.19-13.22,8.92c-2.71,1.62-5.22,3.56-7.84,5.31c-1.01,0.67-2.15,1.04-3.21,0.1
			c-0.88-0.78-0.96-2.09-0.29-2.72c5.36-5,3.98-12.62,7.3-18.38c1.1-2.28,3.53-3.34,4.91-5.47c1.27-1.97,2.62-3.83,2.24-6.19
			c-0.6-3.66,1.5-5.42,3.92-7.68c4.23-3.95,9.16-6.06,14.55-7.55C230.28,132.74,231.84,132.25,232.99,134.09z"/>
		<path class="st2" d="M232.99,134.09c-5.77,3.62-13.74,2.64-18.31,8.79c-0.87,1.17-2.53,2.14-1.91,3.76
			c1.87,4.9-1.08,7.38-4.51,9.73c-1.77,1.22-3.51,2.47-5.26,3.71c3.4-4.85,3.52-9.55,2.16-15.58c-1.04-4.62,2.4-10.25,3.84-15.43
			c1.04,1.52,0.66,3.14,0.36,4.78c-0.42,2.36,0.61,3.84,2.95,4.31c2.06,0.42,3.8-0.32,4.3-2.36c1.89-7.78,10.67-8.25,14.57-13.88
			c0.29-0.42,1.74-0.52,2.29-0.18c3.12,1.93,5.29,0.11,7.51-1.67C240.09,125.77,235.61,129.39,232.99,134.09z"/>
		<path class="st15" d="M74.18,382.15c4.97-6.58,10.08-13.06,12.93-20.98c1.01-2.8,2.06-5.77,3.86-8.06
			c12.86-16.46,22.51-34.86,32.7-52.96c6.44-11.43,13.37-22.59,20.15-33.83c0.78-1.3,0.97-3.41,3.3-3.2
			c-5.38,9.64-10.77,19.28-16.16,28.92c-0.08,6.74-3.85,11.29-8.96,15.04c-0.07,0.25-0.12,0.51-0.14,0.76
			c-5.57,7.67-9.44,16.33-14.01,24.57c-6.82,12.31-15.31,23.65-21.04,36.57c-4.67,5.76-6.98,12.86-10.82,19.1
			c-4.41,0.73-3.25-2.23-3.02-4.57C73.3,383,73.7,382.54,74.18,382.15z"/>
		<path class="st14" d="M203.99,252.09c-1.61,2.29-3.68,4.22-4.46,7.1c-0.51,1.86-2.42,3.68-4.01,3.16
			c-4.96-1.64-6.32,3.17-9.49,4.56c-4.2,1.85-4.73,5.29-5.51,9.19c-0.85,4.26-3.19,7.96-7.09,10.44c-2.21,1.41-3.72,3.22-2.59,6.25
			c1,2.69,2.23,4.18,5.47,3.21c1.47-0.44,3.46,0.74,2.84,2.46c-1.54,4.27-1.08,9.41-5.16,12.64c0.33-6.78-4.02-11.73-6.69-17.36
			c-2.28-4.8,2.11-7.23,4.73-9.07c4.04-2.85,5.72-5.99,4.43-10.49c-0.75-2.61,4-5.88-1.06-7.94c-0.46-0.19,0.53-1.45,1.25-1.81
			c3.08-1.53,5.98-3.74,9.73-3.07c1.67,0.3,3.14-0.22,4.03-1.42C193.83,255.31,199.11,254.08,203.99,252.09z"/>
		<path class="st12" d="M122.01,307.1c2.99-5.01,5.97-10.03,8.96-15.04c0.73,1.66,2.69,0.88,4.11,2.12c-2.67,3.72-5.3,7.45-8,11.14
			C125.83,307.02,124.28,308.15,122.01,307.1z"/>
		<path class="st16" d="M116.99,239.09c0,2,0.01,4,0.01,6c0.16,2.41,0.07,4.78-1,7.01c0.15,2.69-0.49,5.48,0.97,8.02
			c-0.22,1.05,0.33,2.72-1.3,2.79c-1.52,0.06-1.55-1.55-1.59-2.65c-0.18-5.81-2.49-10.89-4.8-16.11c-1.88-4.24-2.18-8.82,1.07-13.13
			c3.4-4.51,1.55-11.32-3.35-13.93c3.26-6.15,3.78-12.83,3.94-19.81c6.07,4.9,4.76,12.56,7.02,18.82c-1.82,3.45-3.61,6.9-3,11.01
			c0.02,2,0.05,3.99,0.07,5.99C116.12,234.94,114.7,237.62,116.99,239.09z"/>
		<path class="st4" d="M217.97,39.1c0.05,2.51,0.54,4.9,2.01,7c-0.45,7.05,1.45,14.08,0.13,21.15c-0.19,1.03,0.02,2.56,1.63,2.56
			c1.42,0,1.9-1.31,2.01-2.45c0.25-2.57,1.24-4.71,2.81-6.75c1.51-1.97,2.84-3.72,5.67-2.21c2.88,1.54,4.73-3.45,7.76-1.31
			c-0.75,1.46-1.4,2.98-2.28,4.36c-1.09,1.73-1.61,3.26,0.37,4.71c3.23,2.35,1.62,4.56-0.37,6.55c-4.19,4.18-8.48,8.26-12.73,12.38
			c-5.45,4.51-4.83-0.8-5.51-3.68c-2.1,0.27-2.17,1.89-2.23,3.02c-0.23,4.49-3.55,5.61-6.93,6.65c-3.66,1.12-3.71-2.51-5.16-4.18
			c-5.48-6.31-3.15-13.69-2.95-20.89c0.27-9.71,5.68-16.96,10.62-24.53C214.11,39.55,215.89,39.08,217.97,39.1z"/>
		<path class="st1" d="M186.02,182.09c-1.2,4.41-3.18,8.42-6,12.01C179.87,189.03,180.72,184.45,186.02,182.09z"/>
		<path class="st9" d="M55.91,422.1c-1.09-2.22-2.5-4.13-4.92-5.04c5.59-4.68,6.06-13.31,13.03-16.93c1.53,0.88,2,2.18,1.53,3.85
			c0.02,0.48-0.53,1.08-0.18,1.37c0.48,0.41-0.24,0.12,0.33-0.3c0.77-0.79,2.43,0.14,2.6-0.77c0.94-5.05,5.63-5.8,8.9-8.22
			c2.28-1.69,5.2-3.19,3.84-6.96c0.61-0.78,1.13-1.68,1.87-2.31c1.17-0.99,2.75-3.4,3.89-1.74c1.08,1.58,4.63,3.11,2.09,6.19
			c-3.01,3.66-4.4,8.41-7.99,11.33c0.78,2.55,4.31-0.39,4.19,2.51c-0.1,2.4-2.56,2.63-4.39,3.38c-2.69,1.11-5.57,1.94-7.83,3.88
			c1.02,2.99,3.81,0.38,5.3,2.22c-3.51,4.55-8.69,4.92-13.71,5.42C61.48,420.3,58.49,420.27,55.91,422.1z"/>
		<path class="st13" d="M81.03,389.11c3.4,1.4,4.18,3.42,0.83,5.59c-6.31,4.08-13.27,7.47-13.7,16.4c-3.57-1.4,1.92-4.24-1.98-4.97
			c-0.9,0-1.56-0.52-2.2-1.06c0.01-1.64,0.02-3.29,0.04-4.93c1.87-1.61,1.09-4.1,2-6.03c0.64-5.14,3.43-8.72,8-11.01
			c0.15,1.88-0.35,4.01,1.99,5.01c-1.28,2.65-2.57,5.3-4.23,8.73C76.63,395.44,78.45,391.82,81.03,389.11z"/>
		<path class="st14" d="M109.98,354.08c0.19-1.72,0.7-3.27,2.61-3.72c5.65-1.34,10.29-4.82,15.41-7.27
			c-0.11,2.62-1.52,4.18-3.9,5.14C119.37,350.12,114.68,352.12,109.98,354.08z"/>
		<path class="st1" d="M114.98,227.09c-1.1-3.55-2.81-6.94-2.97-12.42c2.29,5.47,4.14,3.71,5.97,1.41
			C119.83,220.53,119.61,224.41,114.98,227.09z"/>
		<path class="st1" d="M116.99,239.09c-4.27-0.83-2.29-3.69-1.95-6.01C116.6,234.79,117.04,236.86,116.99,239.09z"/>
		<path class="st1" d="M116,252.09c-0.04-2.39-0.08-4.78,1-7.01C118.57,247.69,117.8,249.97,116,252.09z"/>
		<path class="st7" d="M74.01,383.1c-2.67,3.67-5.33,7.34-8,11.01c0,0-0.05-0.03-0.05-0.03c-3.55-2.26-0.27-5.36-0.97-7.98
			c0.08-1.9,0.66-3.61,2-5.01c2.08,0.17,4.29,1.04,6.01-1c0.39,0.69,0.79,1.38,1.18,2.06C74.11,382.46,74.06,382.78,74.01,383.1z"/>
		<path class="st5" d="M64.99,386.09c1.32-0.59,2.08-2.19,4.18-2.1c0.06,3.76-3.29,6.44-3.2,10.08c-5.55,3.51-3.29-2.69-4.97-4
			C61.5,387.91,62.83,386.58,64.99,386.09z"/>
		<path class="st8" d="M232.01,39.1c2.01-2.9,1.23-6.75,3.08-9.9c2.33,3.11,2.5,11.62,0.18,13.93c-1.13,1.13-2.92,3.32-4.3-0.04
			C229.71,41.35,230.25,40.06,232.01,39.1z"/>
		<path class="st4" d="M232.01,39.1c-0.35,1.33-0.69,2.66-1.04,3.99c-1.28,1.36-1.3,3.91-4.35,4.19c0.85-2.7,1.68-5.17,1.9-7.83
			C228.72,36.94,230.63,37.52,232.01,39.1z"/>
		<path class="st4" d="M232.14,54.14c-1.5-2.49-0.07-3.98,1.52-5.45C234.99,50.72,234.14,52.32,232.14,54.14z"/>
		<path class="st2" d="M239.99,30.09c3.48,3.1,2.4,6.68,0.91,10.31C239.5,37.07,240.23,33.53,239.99,30.09
			C240,30.08,239.99,30.09,239.99,30.09z"/>
		<path class="st17" d="M43.87,434.97c1.52-0.09,1.78,0.61,0.91,1.69c-1.06,1.33-1.77,2.75-1.74,4.47
			c-4.32,7.01-8.64,14.01-12.97,21.02c-1.01,0.23-1.42-0.14-1.17-1.17C33.3,451.97,38.88,443.64,43.87,434.97z"/>
		<path class="st18" d="M28.91,460.98c0.39,0.39,0.78,0.78,1.17,1.17c-2.63,4.63-5.27,9.27-7.9,13.9c-0.55-0.31-1.1-0.63-1.64-0.94
			C22.16,469.8,25.18,465.21,28.91,460.98z"/>
		<path class="st19" d="M63.98,405.06c1.03-0.25,1.87-0.13,2.2,1.06c-1.32,1.75-1.96,4.19-5,4.74
			C60.96,408.23,63.9,407.26,63.98,405.06z"/>
	</g>
</g>
</svg>
